# xmcd
#
# Track frame offsets: 
#        150
#        7260
#        23480
#        42989
#        65003
#        84430
#        98922
#        117472
#        139345
#        152337
#        177082
#        192787
#        212960
#        237827
#
# Disc length: 3200 seconds
#
# Revision: 0
# Processed by: cddbd v1.5.2PL0 Copyright (c) Steve Scherf et al.
# Submitted via: ExactAudioCopy v1.0b3
#
DISCID=ba0c7e0e
DTITLE=Sarah Elizabeth Campbell and The Banned - Live
DYEAR=1999
DGENRE=Bluegrass
TTITLE0=Introduction
TTITLE1=Bluesville
TTITLE2=The Rain Song
TTITLE3=The Car Song
TTITLE4=Bird That I Held In My Hand
TTITLE5=Waiting For The Train To Come In
TTITLE6=You're Not There
TTITLE7=Just Out Of Reach
TTITLE8=Dt. Anne's Reel
TTITLE9=Geraldine And Ruthie Mae
TTITLE10=Richland Woman Blues
TTITLE11=Running With You
TTITLE12=Prairie Lullabye
TTITLE13=[Unlisted Track]
EXTD=
EXTT0=
EXTT1=
EXTT2=
EXTT3=
EXTT4=
EXTT5=
EXTT6=
EXTT7=
EXTT8=
EXTT9=
EXTT10=
EXTT11=
EXTT12=
EXTT13=
PLAYORDER=
